# Blender v2.79 (sub 0) OBJ File: 'brush_lowpoly.blend'
# www.blender.org
mtllib brush_preview.mtl
o Cube.001_Cube.000
v 1.308702 0.347682 -2.128632
v 1.394509 0.484610 -2.273264
v 1.120151 0.352023 -2.478101
v 1.286055 0.485756 -2.476651
v 1.492168 0.158983 -2.234250
v 1.493140 0.378965 -2.333394
v 1.302318 0.163545 -2.581079
v 1.398599 0.389801 -2.538367
v 1.213265 0.347932 -2.306629
v 1.312236 0.497771 -2.361301
v 1.395848 0.161503 -2.404828
v 1.453738 0.353974 -2.438205
v 1.071132 0.229721 -2.224149
v 1.162900 0.231411 -2.076094
v 1.149564 0.097537 -2.466745
v 0.989454 0.223475 -2.400228
v 1.230422 0.091390 -2.322260
v 1.320374 0.094195 -2.168381
v 0.946749 0.160402 -2.195995
v 1.024458 0.178153 -2.125023
v 0.962808 0.082152 -2.268963
v 0.891422 0.154143 -2.271810
v 0.997148 0.077634 -2.188607
v 1.046270 0.080707 -2.111449
v 0.831646 0.110613 -2.119754
v 0.844924 0.110332 -2.094493
v 0.831992 0.097033 -2.157614
v 0.818368 0.110894 -2.145015
v 0.845270 0.096752 -2.132353
v 0.858548 0.096471 -2.107092
v 1.416108 0.117723 -2.208311
v 1.379058 0.137244 -2.394730
v 1.073845 0.286611 -2.440189
v 1.078428 0.253964 -2.318774
v 1.235777 0.275947 -2.106352
v 1.237151 0.122155 -2.531806
v 1.363926 0.444227 -2.276691
v 2.203353 1.452610 -2.763444
v 1.268573 0.446507 -2.453723
v 2.152627 1.453768 -2.859052
v 1.453413 0.349653 -2.323341
v 2.252009 1.401812 -2.789875
v 1.359505 0.351686 -2.503310
v 2.201283 1.402971 -2.885483
v 1.775274 0.963318 -2.449620
v 1.647853 0.966229 -2.689782
v 1.770074 0.838629 -2.756175
v 1.897495 0.835718 -2.516012
v 1.449951 0.744506 -2.602233
v 1.583895 0.604667 -2.674993
v 1.723538 0.601477 -2.411795
v 1.589594 0.741316 -2.339034
v 1.299795 0.461636 -2.354717
v 2.169731 1.461811 -2.806762
v 1.421924 0.334569 -2.421805
v 2.234905 1.393770 -2.842165
v 1.854530 0.815515 -2.647362
v 1.690819 0.986431 -2.558432
v 1.497038 0.766646 -2.458284
v 1.676451 0.579336 -2.555744
v 1.252026 0.347831 -2.234337
v 1.469741 0.364124 -2.395637
v 1.345651 0.492426 -2.325546
v 1.434968 0.160479 -2.335549
v 1.108403 0.230408 -2.164018
v 1.266955 0.092529 -2.259764
v 0.978310 0.167612 -2.167171
v 1.017098 0.078882 -2.157270
v 0.837039 0.110499 -2.109495
v 0.850663 0.096638 -2.122093
v 1.109739 0.246771 -2.217143
v 1.394105 0.129316 -2.319018
vn -0.6797 0.6844 0.2638
vn -0.2398 0.2883 -0.9270
vn 0.8802 -0.2303 -0.4150
vn 0.6897 0.2865 0.6650
vn 0.5480 0.7394 -0.3911
vn 0.6322 0.7593 -0.1546
vn 0.8248 -0.2929 -0.4837
vn -0.6277 0.6342 0.4513
vn -0.5532 0.7927 0.2561
vn -0.5578 -0.0912 -0.8249
vn 0.3939 -0.1312 0.9097
vn -0.6072 0.7378 0.2951
vn -0.5440 0.7592 0.3573
vn -0.5683 0.7102 0.4154
vn 0.5451 0.7424 -0.3895
vn 0.8658 -0.2975 -0.4024
vn -0.6719 0.7328 0.1071
vn -0.3973 0.0944 -0.9128
vn 0.7957 -0.5810 -0.1709
vn 0.5339 0.0731 0.8424
vn 0.6009 0.7368 -0.3099
vn 0.4935 0.0203 0.8695
vn 0.7601 -0.6319 -0.1515
vn -0.4429 0.0417 -0.8956
vn -0.7143 0.6880 0.1278
vn -0.4995 0.6831 0.5328
vn 0.5453 -0.6270 -0.5564
vn 0.5819 -0.5761 -0.5740
vn -0.4581 0.7280 0.5102
vn 0.4515 -0.8388 -0.3043
vn 0.4536 -0.8629 -0.2227
vn -0.8010 0.5740 0.1701
vn -0.5433 -0.0852 -0.8352
vn 0.6612 -0.7435 -0.1002
vn 0.3872 -0.0979 0.9168
vn 0.4481 -0.7395 -0.5023
vn -0.5800 0.5682 0.5837
vn 0.5994 -0.7534 -0.2704
vn -0.4880 0.8456 0.2165
vn 0.2070 -0.9703 -0.1249
vn 0.0629 -0.2738 0.9597
vn 0.0502 -0.9987 -0.0048
vn 0.4200 -0.1118 0.9006
vn -0.4916 -0.0750 -0.8676
vn -0.4270 0.8780 0.2163
vn 0.2100 -0.9683 -0.1354
vn -0.3212 0.9376 0.1335
vn -0.1154 -0.9933 0.0069
vn -0.5921 -0.4857 -0.6431
vn -0.4224 0.8872 0.1857
vn 0.0227 -0.9980 -0.0590
vn -0.4262 0.8687 0.2526
vn -0.5463 -0.7900 0.2784
vn -0.0852 -0.9932 0.0790
vn 0.0893 0.0371 0.9953
vn -0.6086 -0.5362 -0.5849
vn -0.3032 0.9410 0.1502
vn -0.0912 -0.9924 0.0826
vn -0.4246 0.8698 0.2514
vn -0.3261 0.9351 0.1385
vn -0.4258 0.8681 0.2550
vn 0.0534 -0.9986 -0.0067
vn 0.2262 -0.9651 -0.1318
usemtl fur
s off
f 9//1 10//1 4//1 3//1
f 3//2 4//2 8//2 7//2
f 64//3 62//3 6//3 5//3
f 5//4 6//4 2//4 1//4
f 62//5 63//5 2//5 6//5
f 8//6 4//6 10//6 12//6
f 7//7 8//7 12//7 11//7
f 61//8 63//8 10//8 9//8
f 61//9 9//9 34//9 71//9
f 3//10 7//10 36//10 33//10
f 5//11 1//11 35//11 31//11
f 9//12 3//12 33//12 34//12
f 1//13 61//13 71//13 35//13
f 1//14 2//14 63//14 61//14
f 12//15 10//15 63//15 62//15
f 11//16 12//16 62//16 64//16
usemtl wood
f 58//17 54//17 40//17 46//17
f 46//18 40//18 44//18 47//18
f 57//19 56//19 42//19 48//19
f 48//20 42//20 38//20 45//20
f 56//21 54//21 38//21 42//21
f 51//22 48//22 45//22 52//22
f 60//23 57//23 48//23 51//23
f 49//24 46//24 47//24 50//24
f 59//25 58//25 46//25 49//25
f 52//26 45//26 58//26 59//26
f 50//27 47//27 57//27 60//27
f 44//21 40//21 54//21 56//21
f 47//28 44//28 56//28 57//28
f 45//29 38//29 54//29 58//29
usemtl metal
f 7//30 11//30 32//30 36//30
f 64//31 5//31 31//31 72//31
f 53//32 59//32 49//32 39//32
f 39//33 49//33 50//33 43//33
f 55//34 60//34 51//34 41//34
f 41//35 51//35 52//35 37//35
f 43//36 50//36 60//36 55//36
f 37//37 52//37 59//37 53//37
f 11//38 64//38 72//38 32//38
usemtl paint_orange
f 34//39 33//39 16//39 13//39
f 72//40 31//40 18//40 66//40
f 18//41 14//41 20//41 24//41
f 66//42 18//42 24//42 68//42
f 31//43 35//43 14//43 18//43
f 33//44 36//44 15//44 16//44
f 71//45 34//45 13//45 65//45
f 36//46 32//46 17//46 15//46
f 67//47 19//47 25//47 69//47
f 21//48 23//48 29//48 27//48
f 16//49 15//49 21//49 22//49
f 13//50 16//50 22//50 19//50
f 15//51 17//51 23//51 21//51
f 65//52 13//52 19//52 67//52
f 69//53 70//53 30//53 26//53
f 28//53 27//53 29//53 25//53
f 68//54 24//54 30//54 70//54
f 24//55 20//55 26//55 30//55
f 22//56 21//56 27//56 28//56
f 19//57 22//57 28//57 25//57
f 23//58 68//58 70//58 29//58
f 25//53 29//53 70//53 69//53
f 14//59 65//59 67//59 20//59
f 20//60 67//60 69//60 26//60
f 35//61 71//61 65//61 14//61
f 17//62 66//62 68//62 23//62
f 32//63 72//63 66//63 17//63
o Cube.000_Cube.003
v 2.233462 0.347273 2.627920
v 2.368595 0.484528 2.577876
v 2.218669 0.350612 2.345159
v 2.358063 0.485357 2.386286
v 2.438073 0.159256 2.617267
v 2.481488 0.379105 2.567789
v 2.423280 0.162595 2.334507
v 2.484943 0.389557 2.379353
v 2.222986 0.347352 2.486056
v 2.333543 0.497387 2.481750
v 2.430677 0.160925 2.475887
v 2.491355 0.353929 2.474464
v 2.075764 0.227553 2.487637
v 2.089747 0.229968 2.612647
v 2.243726 0.095892 2.358682
v 2.057673 0.223016 2.361982
v 2.243608 0.091022 2.481477
v 2.258759 0.094040 2.606671
v 1.918146 0.154668 2.486613
v 1.957525 0.172568 2.555197
v 2.008743 0.078782 2.420213
v 1.901032 0.148270 2.421525
v 2.004980 0.074394 2.482022
v 2.015921 0.077603 2.546140
v 1.826093 0.107314 2.477633
v 1.827148 0.107076 2.497797
v 1.842755 0.093690 2.453352
v 1.825038 0.107552 2.457470
v 1.843810 0.093452 2.473516
v 1.844865 0.093214 2.493680
v 2.358261 0.117982 2.611512
v 2.412898 0.136505 2.476416
v 2.161534 0.285132 2.355236
v 2.124770 0.239867 2.487956
v 2.162119 0.275135 2.618361
v 2.344386 0.121114 2.346300
v 2.341047 0.444266 2.565521
v 3.307479 1.452504 2.491240
v 2.333046 0.446072 2.397070
v 3.303192 1.453472 2.400978
v 2.444173 0.349503 2.559607
v 3.362738 1.401727 2.488071
v 2.436172 0.351309 2.391156
v 3.358451 1.402694 2.397809
v 2.785907 0.963409 2.579168
v 2.775138 0.965840 2.352433
v 2.913945 0.838289 2.344473
v 2.924714 0.835859 2.571208
v 2.558928 0.744120 2.349426
v 2.711049 0.604336 2.340703
v 2.722851 0.601672 2.589185
v 2.570729 0.741457 2.597908
v 2.319543 0.461253 2.482299
v 3.295956 1.461607 2.446647
v 2.457677 0.334322 2.474378
v 3.369974 1.393592 2.442402
v 2.942890 0.815424 2.456489
v 2.756962 0.986274 2.467152
v 2.539008 0.766515 2.475148
v 2.742770 0.579278 2.463463
vn -0.7430 0.6635 -0.0881
vn 0.0998 0.1772 -0.9791
vn 0.9701 -0.2404 0.0343
vn 0.2128 0.1621 0.9636
vn -0.4314 0.8954 0.1100
vn 0.6657 0.7336 -0.1362
vn 0.6402 0.7526 0.1540
vn 0.9581 -0.2689 -0.0984
vn -0.7315 0.6588 0.1757
vn -0.0291 -0.0798 0.9964
vn -0.0721 -0.0494 -0.9962
vn -0.4256 0.9037 -0.0478
vn -0.7275 0.6850 0.0392
vn -0.1088 -0.0645 -0.9920
vn -0.0337 -0.0896 0.9954
vn -0.7426 0.6691 0.0306
vn -0.6483 0.7252 -0.2319
vn 0.0171 0.0807 -0.9966
vn 0.7860 -0.5751 0.2270
vn 0.1115 0.0594 0.9920
vn 0.6757 0.7368 -0.0242
vn 0.0712 0.0152 0.9973
vn 0.7459 -0.6253 0.2296
vn -0.0236 0.0366 -0.9990
vn -0.6949 0.6808 -0.2314
vn -0.6692 0.6750 0.3107
vn 0.7201 -0.6195 -0.3125
vn 0.7604 -0.5693 -0.3127
vn -0.6227 0.7194 0.3077
vn -0.7934 0.5651 -0.2264
vn -0.1193 -0.0680 -0.9905
vn 0.6390 -0.7334 0.2319
vn -0.0249 -0.0893 0.9957
vn 0.6134 -0.7276 -0.3070
vn -0.7678 0.5593 0.3126
vn 0.2500 -0.9680 -0.0197
vn -0.2344 -0.2913 0.9275
vn 0.0655 -0.9976 0.0238
vn 0.2516 -0.9674 -0.0278
vn -0.4600 0.8873 0.0330
vn -0.1075 -0.9924 -0.0596
vn -0.2164 -0.3015 -0.9286
vn -0.4211 0.9066 0.0257
vn 0.0646 -0.9967 -0.0486
vn -0.4130 0.9106 0.0183
vn -0.6128 -0.7899 0.0227
vn -0.1129 -0.9923 0.0510
vn -0.2808 -0.3065 0.9095
vn -0.2338 -0.2913 -0.9276
vn -0.4597 0.8874 0.0338
vn 0.5499 -0.8277 -0.1119
vn 0.5568 -0.8299 0.0345
usemtl fur
s off
f 81//64 82//64 76//64 75//64
f 75//65 76//65 80//65 79//65
f 83//66 84//66 78//66 77//66
f 77//67 78//67 74//67 73//67
f 106//68 105//68 88//68 85//68
f 84//69 82//69 74//69 78//69
f 80//70 76//70 82//70 84//70
f 79//71 80//71 84//71 83//71
f 73//72 74//72 82//72 81//72
f 103//73 107//73 86//73 90//73
f 105//74 108//74 87//74 88//74
f 107//75 106//75 85//75 86//75
f 73//76 81//76 106//76 107//76
f 75//77 79//77 108//77 105//77
f 77//78 73//78 107//78 103//78
f 81//79 75//79 105//79 106//79
usemtl wood
f 130//80 126//80 112//80 118//80
f 118//81 112//81 116//81 119//81
f 129//82 128//82 114//82 120//82
f 120//83 114//83 110//83 117//83
f 128//84 126//84 110//84 114//84
f 123//85 120//85 117//85 124//85
f 132//86 129//86 120//86 123//86
f 121//87 118//87 119//87 122//87
f 131//88 130//88 118//88 121//88
f 124//89 117//89 130//89 131//89
f 122//90 119//90 129//90 132//90
f 116//84 112//84 126//84 128//84
f 119//91 116//91 128//91 129//91
f 117//92 110//92 126//92 130//92
usemtl metal
f 125//93 131//93 121//93 111//93
f 111//94 121//94 122//94 115//94
f 127//95 132//95 123//95 113//95
f 113//96 123//96 124//96 109//96
f 115//97 122//97 132//97 127//97
f 109//98 124//98 131//98 125//98
usemtl paint_blue
f 104//99 103//99 90//99 89//99
f 90//100 86//100 92//100 96//100
f 89//101 90//101 96//101 95//101
f 108//102 104//102 89//102 87//102
f 92//103 91//103 97//103 98//103
f 93//104 95//104 101//104 99//104
f 88//105 87//105 93//105 94//105
f 85//106 88//106 94//106 91//106
f 87//107 89//107 95//107 93//107
f 86//108 85//108 91//108 92//108
f 97//109 101//109 102//109 98//109
f 100//109 99//109 101//109 97//109
f 95//110 96//110 102//110 101//110
f 96//111 92//111 98//111 102//111
f 94//112 93//112 99//112 100//112
f 91//113 94//113 100//113 97//113
f 79//114 83//114 104//114 108//114
f 83//115 77//115 103//115 104//115
o Cube.003_Cube.002
v -2.901863 -0.189522 2.901863
v -3.000000 0.110787 2.999999
v -2.901863 -0.189522 -2.901863
v -3.000000 0.110787 -3.000000
v 2.901863 -0.189522 2.901863
v 2.999999 0.110787 2.999999
v 2.901863 -0.189522 -2.901863
v 2.999999 0.110787 -3.000000
v -2.901863 -0.189522 0.255711
v -3.000000 0.110787 -0.607735
v 2.901863 -0.189522 -0.587854
v 2.999999 0.110787 -0.607735
v 2.999999 0.110787 1.136453
v -3.000000 0.110787 1.136453
v 2.901863 -0.189522 1.099277
v -1.868102 -0.189522 -2.901863
v -1.931278 0.110787 -3.000000
v -1.432297 -0.189522 2.901863
v -1.480735 0.110787 2.999999
v -1.915551 0.110384 -0.118337
v -1.933162 0.111309 0.733348
v -1.030192 0.110787 -3.000000
v -1.017338 0.110457 -0.207764
v -1.344215 0.111213 0.386383
v -0.996492 -0.189522 -2.901863
v -3.000000 0.110787 -1.485848
v 2.901863 -0.189522 -1.155320
v -2.901863 -0.189522 -1.437243
v 2.999999 0.110787 -1.194391
v -1.919408 0.110482 -1.134645
v -1.020490 0.110538 -0.614813
v 2.901863 -0.189522 -1.719166
v 2.999999 0.110787 -1.777306
v -1.544116 0.110581 -1.447344
v -1.023622 0.110618 -1.384836
v -0.256875 0.110787 -3.000000
v -0.252106 -0.189522 2.901863
v -0.246394 0.110511 -0.453119
v -0.640131 0.111144 0.507950
v -0.252106 -0.189522 -2.901863
v -0.256875 0.110787 2.999999
v -0.368874 0.110578 -0.708747
v -0.371498 0.110646 -0.982529
v -0.127453 0.110548 -0.318477
v -0.129733 0.110607 -0.540408
v -0.131997 0.110665 -0.674788
v -2.901863 -0.189522 2.421237
v 2.999999 0.110787 2.546330
v -3.000000 0.110787 2.294288
v 2.901863 -0.189522 2.466359
v -1.931922 0.110965 2.327019
v -1.137508 0.110932 2.208445
v -0.466926 0.110909 2.249990
v -0.214359 0.110892 2.279399
v -1.931757 0.110919 2.525405
v -1.110023 0.110895 2.437199
v -0.443896 0.110877 2.374202
v -0.194482 0.110865 2.396080
v -3.000000 0.110787 2.708128
v 2.065741 0.110787 -3.000000
v 1.996001 -0.189522 2.901863
v 2.067475 0.110742 -1.376462
v 1.996001 -0.189522 -2.901863
v 2.065741 0.110787 2.999999
v 1.898619 0.110818 2.451474
v 1.913571 0.110810 2.512673
v -3.000000 0.110787 -2.394075
v 2.901863 -0.189522 -2.393306
v -2.901863 -0.189522 -2.315760
v 2.999999 0.110787 -2.474244
v -1.739414 0.110685 -2.230558
v -1.026936 0.110703 -2.082199
v -0.374275 0.110717 -2.000212
v -0.134394 0.110726 -1.959311
v -3.000000 0.110787 -2.747108
v -2.901863 -0.189522 -2.470852
v -1.790184 0.110712 -2.358273
v -1.027798 0.110725 -2.432159
v -0.374997 0.110735 -2.334641
v 0.002769 0.110742 -2.123868
v 1.295649 -0.189522 -2.901863
v 1.335709 0.110787 2.999999
v 1.335709 0.110787 -3.000000
v 1.295649 -0.189522 2.901863
v 0.978241 0.110658 -0.726080
v 1.129318 0.110855 2.389804
v 1.062805 0.110837 2.429411
v 1.253736 0.110748 -2.116588
v 1.253334 0.110758 -2.561926
v 0.873626 -0.189522 -2.901863
v 0.901745 0.110787 2.999999
v 0.901745 0.110787 -3.000000
v 0.873626 -0.189522 2.901863
v 0.721131 0.110866 2.340016
v 0.739272 0.110846 2.437152
v 0.832045 0.110741 -2.077241
v 0.831576 0.110753 -2.199223
v 0.859414 0.110862 2.348976
v 0.939112 0.110843 2.411343
v 0.974903 0.110743 -2.099455
v 0.974457 0.110755 -2.363342
v 1.287223 0.110847 2.315486
v 1.304108 0.110832 2.520754
v 1.485797 0.110752 -2.212479
v 1.355412 0.110761 -2.453003
vn -0.0000 1.0000 -0.0004
vn -0.0004 1.0000 -0.0012
vn -0.0001 1.0000 0.0001
vn -0.0004 1.0000 0.0003
vn -0.0005 1.0000 0.0004
vn -0.0000 1.0000 0.0002
vn 0.0003 1.0000 0.0001
vn 0.0001 1.0000 0.0002
vn -0.0001 1.0000 -0.0009
vn 0.0001 1.0000 0.0005
vn 0.0001 1.0000 0.0000
vn 0.0003 1.0000 -0.0005
vn 0.0000 1.0000 0.0001
vn -0.0000 1.0000 0.0003
vn -0.0005 1.0000 -0.0010
vn 0.0000 1.0000 0.0004
vn 0.0002 1.0000 0.0000
vn 0.0001 1.0000 0.0001
vn 0.0002 1.0000 0.0002
vn -0.0003 1.0000 0.0001
vn 0.0000 1.0000 -0.0000
vn -0.0001 1.0000 0.0000
vn 0.0000 1.0000 -0.0001
vn -0.0002 1.0000 0.0001
vn -0.9505 -0.3106 0.0000
vn 0.0000 -0.3106 -0.9505
vn 0.9505 -0.3106 0.0000
vn 0.0000 -0.3106 0.9505
usemtl paint.001
s off
f 152//116 142//116 146//116 153//116
f 155//117 152//117 153//117 156//117
f 163//118 162//118 152//118 155//118
f 175//118 167//118 163//118 174//118
f 167//118 166//118 162//118 163//118
f 178//119 175//119 174//119 177//119
f 177//120 174//120 170//120 176//120
usemtl metal
f 187//121 191//121 134//121 151//121
f 162//122 158//122 142//122 152//122
f 188//123 187//123 151//123
f 189//121 188//121 151//121 173//121
f 174//121 163//121 155//121 170//121
f 170//124 155//124 156//124 171//124
f 166//125 158//125 162//125
f 203//126 199//126 158//126 166//126
f 204//118 203//118 166//118 167//118
f 205//118 204//118 167//118 175//118
f 206//118 205//118 175//118 178//118
f 176//127 170//127 171//127
f 190//128 189//128 173//128
f 227//128 190//128 173//128 223//128
f 217//129 177//129 176//129
f 217//130 176//130 171//130
f 217//131 178//131 177//131
f 228//128 206//128 178//128 217//128
f 217//132 171//132 186//132 226//132
f 171//133 185//133 186//133
f 171//133 156//133 184//133 185//133
f 156//134 153//134 183//134 184//134
f 153//135 146//135 181//135 183//135
f 180//128 197//128 198//128
f 145//136 194//136 197//136 180//136
f 202//136 194//136 165//136
f 165//136 194//136 161//136
f 144//136 194//136 145//136
f 161//136 194//136 144//136
f 180//136 198//136 196//136 138//136
f 149//128 136//128 207//128 209//128
f 154//128 149//128 209//128 210//128
f 168//128 154//128 210//128 211//128
f 168//118 211//118 212//118
f 224//136 168//136 212//136 229//136
f 140//136 192//136 194//136 202//136
f 215//137 221//137 237//137
f 217//138 218//138 234//138
f 236//128 220//128 217//128
f 235//128 219//128 214//128
f 224//136 229//136 233//136
f 217//138 226//138 230//138
f 232//128 228//128 217//128
f 231//128 227//128 223//128
f 219//128 231//128 223//128 214//128
f 220//128 232//128 217//128
f 217//138 230//138 218//138
f 215//128 224//128 233//128 221//128
f 198//128 235//128 214//128 196//128
f 194//136 236//136 217//136
f 194//136 217//136 234//136 197//136
f 194//139 237//139 236//139
f 192//136 215//136 237//136 194//136
usemtl border
f 208//140 207//140 136//140 135//140
f 195//141 192//141 140//141 139//141
f 182//142 180//142 138//142 137//142
f 150//143 151//143 134//143 133//143
f 159//142 161//142 144//142 143//142
f 141//140 146//140 142//140
f 179//140 181//140 146//140 141//140
f 143//142 144//142 145//142 147//142
f 135//141 136//141 149//141 148//141
f 169//143 173//143 151//143 150//143
f 148//141 149//141 154//141 157//141
f 164//142 165//142 161//142 159//142
f 141//140 142//140 158//140 160//140
f 200//142 202//142 165//142 164//142
f 157//141 154//141 168//141 172//141
f 225//143 223//143 173//143 169//143
f 179//140 191//140 181//140
f 147//142 145//142 180//142 182//142
f 133//140 134//140 191//140 179//140
f 137//143 138//143 196//143 193//143
f 213//141 215//141 192//141 195//141
f 160//140 158//140 199//140 201//140
f 139//142 140//142 202//142 200//142
f 201//140 199//140 207//140 208//140
f 222//141 224//141 215//141 213//141
f 172//141 168//141 224//141 222//141
f 216//143 214//143 223//143 225//143
f 193//143 196//143 214//143 216//143
usemtl paint_blue.001
f 226//121 186//121 190//121 227//121
f 186//121 185//121 189//121 190//121
f 185//121 184//121 188//121 189//121
f 184//123 183//123 187//123 188//123
f 183//118 181//118 191//118 187//118
f 234//128 218//128 219//128 235//128
f 230//121 226//121 227//121 231//121
f 218//131 230//131 231//131 219//131
f 197//128 234//128 235//128 198//128
usemtl paint_orange.001
f 229//128 212//128 206//128 228//128
f 212//128 211//128 205//128 206//128
f 211//128 210//128 204//128 205//128
f 210//128 209//128 203//128 204//128
f 209//126 207//126 199//126 203//126
f 237//136 221//136 220//136 236//136
f 233//128 229//128 228//128 232//128
f 221//136 233//136 232//136 220//136
o Cube.002_Cube.001
v -0.091083 0.779285 -0.010725
v 0.202534 1.115223 -0.015697
v 0.461350 0.635767 -0.541691
v 0.540465 1.023544 -0.343568
v 0.281309 0.503551 0.451254
v 0.415049 0.957936 0.234745
v 0.833743 0.360033 -0.079711
v 0.766152 0.895980 -0.073834
v 0.185133 0.707526 -0.276208
v 0.324359 1.077534 -0.237768
v 0.557526 0.431792 0.185771
v 0.607975 0.868907 0.120110
v 0.005897 0.404242 -0.380715
v -0.236035 0.467094 -0.148186
v 0.530862 0.131821 -0.262121
v 0.247828 0.341391 -0.613245
v 0.288931 0.194673 -0.029592
v 0.046999 0.257525 0.202938
v -0.174755 0.222523 -0.519553
v -0.297677 0.254457 -0.401409
v 0.106815 0.073120 -0.440883
v -0.051834 0.190589 -0.637698
v -0.016107 0.105054 -0.322739
v -0.139028 0.136988 -0.204594
v -0.247788 0.125489 -0.592462
v -0.287182 0.135723 -0.554598
v -0.170181 0.094810 -0.598038
v -0.208394 0.115255 -0.630325
v -0.209575 0.105044 -0.560175
v -0.248969 0.115279 -0.522312
v 0.181589 0.367628 0.348725
v 0.534996 0.370735 0.178834
v 0.372024 0.475669 -0.555838
v 0.063798 0.438309 -0.329681
v -0.146124 0.610280 -0.057826
v 0.699737 0.233018 -0.149287
v 0.192660 1.009542 -0.045914
v 1.566712 3.644778 0.527740
v 0.491442 0.931920 -0.333085
v 1.726811 3.603186 0.373862
v 0.380350 0.870569 0.186929
v 1.667283 3.570311 0.652506
v 0.679132 0.792948 -0.100242
v 1.827383 3.528718 0.498629
v 0.724572 2.358877 0.249873
v 1.126731 2.254399 -0.136658
v 1.379362 2.067342 0.176747
v 0.977202 2.171820 0.563279
v 0.854742 1.663913 -0.299997
v 1.131603 1.458914 0.043469
v 0.690870 1.573413 0.467075
v 0.414008 1.778412 0.123609
v 0.310193 0.994319 -0.229020
v 1.629691 3.636621 0.429624
v 0.561598 0.808170 0.082865
v 1.764403 3.536875 0.596745
v 1.221161 2.087831 0.423209
v 0.882772 2.338388 0.003412
v 0.587382 1.755958 -0.146492
v 0.958229 1.481368 0.313570
vn -0.3951 0.7599 -0.5162
vn 0.4838 0.8660 0.1263
vn 0.2800 0.9222 0.2668
vn 0.2224 -0.8613 0.4569
vn -0.8217 -0.3218 0.4703
vn 0.0164 -0.9608 0.2767
vn -0.7574 0.0656 0.6497
vn 0.6476 -0.2994 -0.7007
vn -0.2983 0.7347 -0.6093
vn 0.2153 -0.8595 0.4636
vn -0.3741 0.7204 -0.5840
vn -0.1432 -0.9828 0.1167
vn 0.3736 -0.6324 -0.6786
vn -0.3370 0.7598 -0.5560
vn -0.3727 -0.9174 -0.1398
vn -0.7670 -0.5522 0.3267
vn 0.3154 -0.6686 -0.6735
vn -0.4909 0.3854 -0.7814
vn 0.8000 0.1198 -0.5879
vn 0.6475 0.1051 0.7547
vn -0.5141 0.4776 0.7124
vn 0.7282 0.0548 0.6832
vn -0.6504 0.4285 -0.6272
vn 0.4868 -0.6449 0.5892
vn -0.5835 0.3974 -0.7082
vn 0.3984 -0.6219 0.6742
vn -0.5774 0.3958 -0.7141
vn -0.3196 0.4565 -0.8304
vn 0.7501 -0.0855 -0.6557
vn 0.4123 -0.2592 0.8734
vn -0.6586 0.2804 0.6983
vn 0.4170 0.8880 0.1939
vn -0.6911 0.2200 0.6884
vn 0.3850 -0.3232 0.8644
vn 0.7250 -0.1479 -0.6727
vn -0.3507 0.3963 -0.8485
vn -0.7142 0.4907 -0.4992
vn 0.7485 -0.4176 0.5152
vn 0.7737 -0.3531 0.5260
vn -0.6811 0.5504 -0.4829
vn -0.4173 0.2466 -0.8747
vn 0.6520 -0.2919 -0.6998
vn 0.3134 -0.4678 0.8264
vn -0.7546 0.0735 0.6521
vn 0.6743 -0.5616 0.4795
vn -0.7782 0.3404 -0.5278
usemtl paint
s off
f 271//144 270//144 253//144 250//144
f 249//145 247//145 239//145 243//145
f 245//146 241//146 247//146 249//146
f 269//147 268//147 255//147 254//147
f 255//148 251//148 257//148 261//148
f 254//149 255//149 261//149 260//149
f 268//150 272//150 251//150 255//150
f 270//151 273//151 252//151 253//151
f 272//152 271//152 250//152 251//152
f 273//153 269//153 254//153 252//153
f 257//154 256//154 262//154 263//154
f 258//155 260//155 266//155 264//155
f 253//156 252//156 258//156 259//156
f 250//157 253//157 259//157 256//157
f 252//149 254//149 260//149 258//149
f 251//157 250//157 256//157 257//157
f 262//158 266//158 267//158 263//158
f 265//158 264//158 266//158 262//158
f 260//155 261//155 267//155 266//155
f 261//159 257//159 263//159 267//159
f 259//160 258//160 264//160 265//160
f 256//154 259//154 265//154 262//154
usemtl fur
f 246//161 247//161 241//161 240//161
f 240//162 241//162 245//162 244//162
f 248//163 249//163 243//163 242//163
f 242//164 243//164 239//164 238//164
f 244//165 245//165 249//165 248//165
f 238//166 239//166 247//166 246//166
f 244//167 248//167 269//167 273//167
f 238//168 246//168 271//168 272//168
f 240//151 244//151 273//151 270//151
f 242//150 238//150 272//150 268//150
f 248//169 242//169 268//169 269//169
f 246//170 240//170 270//170 271//170
usemtl wood
f 295//171 291//171 277//171 283//171
f 283//172 277//172 281//172 284//172
f 294//173 293//173 279//173 285//173
f 285//174 279//174 275//174 282//174
f 293//175 291//175 275//175 279//175
f 288//176 285//176 282//176 289//176
f 297//177 294//177 285//177 288//177
f 286//178 283//178 284//178 287//178
f 296//179 295//179 283//179 286//179
f 289//180 282//180 295//180 296//180
f 287//181 284//181 294//181 297//181
f 281//175 277//175 291//175 293//175
f 284//182 281//182 293//182 294//182
f 282//183 275//183 291//183 295//183
usemtl metal
f 290//184 296//184 286//184 276//184
f 276//185 286//185 287//185 280//185
f 292//186 297//186 288//186 278//186
f 278//187 288//187 289//187 274//187
f 280//188 287//188 297//188 292//188
f 274//189 289//189 296//189 290//189
