# Blender v2.77 (sub 0) OBJ File: ''
# www.blender.org
mtllib teleporter.mtl
o Circle
v 0.221735 0.023558 -0.221737
v 0.207877 0.069155 -0.311110
v 0.174218 0.023558 -0.260735
v -0.072995 0.069155 0.366977
v 0.000000 0.023557 0.313582
v -0.061177 0.023557 0.307558
v -0.120002 0.023558 -0.289712
v -0.207877 0.069155 -0.311110
v -0.174218 0.023558 -0.260735
v 0.143188 0.069155 -0.345688
v 0.120002 0.023558 -0.289712
v 0.000000 0.069155 0.374168
v 0.061177 0.023557 0.307558
v -0.221737 0.023558 -0.221737
v 0.061177 0.023558 -0.307558
v 0.072998 0.069155 0.366977
v 0.120002 0.023557 0.289712
v -0.264578 0.069155 -0.264578
v -0.260735 0.023558 -0.174218
v 0.072995 0.069155 -0.366977
v 0.000000 0.023558 -0.313582
v 0.207877 0.069155 0.311110
v 0.174218 0.023557 0.260735
v -0.345685 0.069155 -0.143187
v -0.289712 0.023558 -0.120002
v 0.264578 0.069155 0.264575
v 0.221737 0.023557 0.221735
v -0.307558 0.023558 -0.061177
v 0.260735 0.023557 0.174218
v -0.366977 0.069155 -0.072995
v -0.313582 0.023557 0.000000
v 0.345685 0.069155 0.143188
v 0.289712 0.023557 0.120003
v -0.374168 0.069155 0.000000
v -0.307558 0.023557 0.061178
v 0.307558 0.023557 0.061178
v -0.366977 0.069155 0.072995
v -0.289712 0.023557 0.120003
v 0.366977 0.069155 0.072995
v 0.313582 0.023557 0.000000
v -0.345685 0.069155 0.143188
v -0.260735 0.023557 0.174218
v 0.366977 0.069155 -0.072997
v 0.307558 0.023558 -0.061177
v -0.311110 0.069155 0.207878
v -0.221737 0.023557 0.221737
v 0.289712 0.023558 -0.120002
v -0.264578 0.069155 0.264578
v -0.174218 0.023557 0.260735
v 0.345685 0.069155 -0.143187
v 0.260735 0.023558 -0.174218
v -0.143188 0.069155 0.345685
v -0.120002 0.023557 0.289712
v -0.072995 0.069155 -0.366977
v -0.061177 0.023558 -0.307558
v 0.311110 0.069155 -0.207877
v -0.143188 0.069155 -0.345685
v 0.346452 0.023898 -0.346452
v 0.258970 0.023898 -0.387577
v 0.329605 0.023898 -0.329607
v -0.095585 0.023897 0.480543
v 0.000000 0.023897 0.466135
v -0.090938 0.023897 0.457177
v -0.187497 0.023898 -0.452660
v -0.258970 0.023898 -0.387575
v -0.178383 0.023898 -0.430652
v 0.187497 0.023898 -0.452660
v 0.178380 0.023898 -0.430652
v 0.000000 0.023897 0.489955
v 0.090938 0.023897 0.457177
v -0.346452 0.023898 -0.346452
v -0.329605 0.023898 -0.329607
v 0.090938 0.023898 -0.457177
v 0.095588 0.023897 0.480543
v 0.178383 0.023897 0.430652
v -0.387575 0.023898 -0.258970
v 0.095585 0.023898 -0.480543
v 0.000000 0.023898 -0.466135
v 0.187497 0.023897 0.452660
v 0.258970 0.023897 0.387575
v -0.407383 0.023898 -0.272205
v -0.430652 0.023898 -0.178383
v 0.272205 0.023897 0.407383
v 0.329605 0.023897 0.329605
v -0.452660 0.023898 -0.187497
v -0.457177 0.023898 -0.090937
v 0.407383 0.023897 0.272205
v 0.387575 0.023897 0.258970
v -0.480543 0.023898 -0.095585
v -0.466135 0.023897 0.000000
v 0.452660 0.023897 0.187497
v 0.430652 0.023897 0.178383
v -0.489955 0.023897 0.000000
v -0.457177 0.023897 0.090938
v 0.457177 0.023897 0.090938
v -0.480543 0.023897 0.095585
v -0.430652 0.023897 0.178383
v 0.480543 0.023897 0.095585
v 0.466135 0.023897 0.000000
v -0.407383 0.023897 0.272205
v -0.387575 0.023897 0.258970
v 0.480543 0.023898 -0.095587
v 0.457177 0.023898 -0.090937
v -0.346452 0.023897 0.346452
v -0.329605 0.023897 0.329605
v 0.452660 0.023898 -0.187497
v 0.430652 0.023898 -0.178383
v -0.272205 0.023897 0.407383
v -0.258970 0.023897 0.387575
v 0.407383 0.023898 -0.272205
v 0.387575 0.023898 -0.258970
v -0.187497 0.023897 0.452660
v -0.178383 0.023897 0.430652
v -0.095585 0.023898 -0.480543
v -0.090938 0.023898 -0.457177
v 0.264575 0.069155 -0.264578
v 0.143188 0.069155 0.345685
v -0.311110 0.069155 -0.207877
v 0.000000 0.069155 -0.374168
v 0.311110 0.069155 0.207878
v 0.374168 0.069155 0.000000
v -0.207877 0.069155 0.311110
v 0.272205 0.023898 -0.407383
v -0.272205 0.023898 -0.407383
v 0.000000 0.023898 -0.489955
v 0.346452 0.023897 0.346452
v -0.452660 0.023897 0.187497
v 0.489955 0.023897 0.000000
v 0.207877 0.569155 -0.311110
v -0.072995 0.569155 0.366978
v -0.207877 0.569155 -0.311110
v 0.143188 0.569155 -0.345687
v 0.000000 0.569155 0.374168
v 0.072998 0.569155 0.366978
v -0.264578 0.569155 -0.264578
v 0.072995 0.569155 -0.366977
v 0.207877 0.569155 0.311110
v -0.345685 0.569155 -0.143187
v 0.264578 0.569155 0.264575
v -0.366977 0.569155 -0.072995
v 0.345685 0.569155 0.143188
v -0.374168 0.569155 0.000000
v -0.366977 0.569155 0.072995
v 0.366977 0.569155 0.072995
v -0.345685 0.569155 0.143188
v 0.366977 0.569155 -0.072997
v -0.311110 0.569155 0.207877
v -0.264578 0.569155 0.264577
v 0.345685 0.569155 -0.143187
v -0.143188 0.569155 0.345685
v -0.072995 0.569155 -0.366977
v 0.311110 0.569155 -0.207878
v -0.143188 0.569155 -0.345685
v 0.264575 0.569155 -0.264578
v 0.143188 0.569155 0.345685
v -0.311110 0.569155 -0.207878
v 0.000000 0.569155 -0.374167
v 0.311110 0.569155 0.207877
v 0.374168 0.569155 0.000000
v -0.207877 0.569155 0.311110
vn -0.3827 0.7976 0.4663
vn 0.0591 0.7976 -0.6003
vn 0.2843 0.7976 0.5320
vn -0.2843 0.7976 0.5320
vn -0.0591 0.7976 -0.6003
vn 0.3827 0.7976 0.4663
vn -0.1751 0.7976 0.5772
vn -0.1751 0.7976 -0.5772
vn 0.4663 0.7976 0.3827
vn -0.0591 0.7976 0.6003
vn -0.2843 0.7976 -0.5320
vn 0.5320 0.7976 0.2843
vn -0.3827 0.7976 -0.4663
vn 0.5772 0.7976 0.1751
vn -0.4663 0.7976 -0.3827
vn 0.6003 0.7976 0.0591
vn -0.5320 0.7976 -0.2843
vn 0.6003 0.7976 -0.0591
vn -0.5772 0.7976 -0.1751
vn 0.5772 0.7976 -0.1751
vn -0.6003 0.7976 -0.0591
vn 0.5320 0.7976 -0.2843
vn -0.6003 0.7976 0.0591
vn 0.4663 0.7976 -0.3827
vn -0.5772 0.7976 0.1751
vn 0.3827 0.7976 -0.4663
vn -0.5320 0.7976 0.2843
vn 0.2843 0.7976 -0.5320
vn 0.0591 0.7976 0.6003
vn -0.4663 0.7976 0.3827
vn 0.1751 0.7976 -0.5772
vn 0.1751 0.7976 0.5772
vn 0.0000 1.0000 0.0000
vn 0.7730 0.0000 0.6344
vn 0.7730 0.0000 -0.6344
vn 0.6344 0.0000 -0.7730
vn -0.4714 -0.0000 0.8819
vn -0.9569 0.0000 -0.2903
vn -0.7730 0.0000 0.6344
vn 0.9569 0.0000 -0.2903
vn 0.9952 0.0000 0.0980
vn 0.6344 0.0000 0.7730
vn 0.0980 0.0000 -0.9952
vn -0.8819 -0.0000 -0.4714
vn -0.6344 0.0000 0.7730
vn 0.2903 -0.0000 0.9569
vn -0.7730 0.0000 -0.6344
vn -0.0980 0.0000 -0.9952
vn 0.0980 -0.0000 0.9952
vn -0.9952 -0.0000 -0.0980
vn -0.2903 0.0000 -0.9569
vn -0.4714 0.0000 -0.8819
vn -0.2903 -0.0000 0.9570
vn -0.9569 -0.0000 0.2903
vn -0.6344 0.0000 -0.7730
vn -0.9952 0.0000 0.0980
vn 0.4714 -0.0000 0.8819
vn 0.8819 0.0000 0.4714
vn 0.2903 0.0000 -0.9569
vn 0.9952 -0.0000 -0.0980
vn 0.8819 -0.0000 -0.4714
vn 0.9569 -0.0000 0.2903
vn -0.0980 -0.0000 0.9952
vn -0.8819 0.0000 0.4714
vn 0.4714 0.0000 -0.8819
usemtl None
s off
f 1//1 2//1 3//1
f 4//2 5//2 6//2
f 7//3 8//3 9//3
f 3//4 10//4 11//4
f 12//5 13//5 5//5
f 8//6 14//6 9//6
f 10//7 15//7 11//7
f 16//8 17//8 13//8
f 18//9 19//9 14//9
f 20//10 21//10 15//10
f 17//11 22//11 23//11
f 19//12 24//12 25//12
f 23//13 26//13 27//13
f 24//14 28//14 25//14
f 26//15 29//15 27//15
f 30//16 31//16 28//16
f 29//17 32//17 33//17
f 34//18 35//18 31//18
f 32//19 36//19 33//19
f 37//20 38//20 35//20
f 39//21 40//21 36//21
f 41//22 42//22 38//22
f 40//23 43//23 44//23
f 45//24 46//24 42//24
f 43//25 47//25 44//25
f 48//26 49//26 46//26
f 50//27 51//27 47//27
f 49//28 52//28 53//28
f 21//29 54//29 55//29
f 56//30 1//30 51//30
f 52//31 6//31 53//31
f 55//32 57//32 7//32
f 58//33 59//33 60//33
f 61//33 62//33 63//33
f 64//33 65//33 66//33
f 59//33 67//33 68//33
f 69//33 70//33 62//33
f 65//33 71//33 72//33
f 67//33 73//33 68//33
f 74//33 75//33 70//33
f 71//33 76//33 72//33
f 77//33 78//33 73//33
f 79//33 80//33 75//33
f 81//33 82//33 76//33
f 83//33 84//33 80//33
f 85//33 86//33 82//33
f 84//33 87//33 88//33
f 89//33 90//33 86//33
f 88//33 91//33 92//33
f 93//33 94//33 90//33
f 91//33 95//33 92//33
f 96//33 97//33 94//33
f 98//33 99//33 95//33
f 97//33 100//33 101//33
f 99//33 102//33 103//33
f 101//33 104//33 105//33
f 103//33 106//33 107//33
f 105//33 108//33 109//33
f 107//33 110//33 111//33
f 109//33 112//33 113//33
f 78//33 114//33 115//33
f 110//33 60//33 111//33
f 112//33 63//33 113//33
f 115//33 64//33 66//33
f 1//1 116//1 2//1
f 4//2 12//2 5//2
f 7//3 57//3 8//3
f 3//4 2//4 10//4
f 12//5 16//5 13//5
f 8//6 18//6 14//6
f 10//7 20//7 15//7
f 16//8 117//8 17//8
f 18//9 118//9 19//9
f 20//10 119//10 21//10
f 17//11 117//11 22//11
f 19//12 118//12 24//12
f 23//13 22//13 26//13
f 24//14 30//14 28//14
f 26//15 120//15 29//15
f 30//16 34//16 31//16
f 29//17 120//17 32//17
f 34//18 37//18 35//18
f 32//19 39//19 36//19
f 37//20 41//20 38//20
f 39//21 121//21 40//21
f 41//22 45//22 42//22
f 40//23 121//23 43//23
f 45//24 48//24 46//24
f 43//25 50//25 47//25
f 48//26 122//26 49//26
f 50//27 56//27 51//27
f 49//28 122//28 52//28
f 21//29 119//29 54//29
f 56//30 116//30 1//30
f 52//31 4//31 6//31
f 55//32 54//32 57//32
f 58//33 123//33 59//33
f 61//33 69//33 62//33
f 64//33 124//33 65//33
f 59//33 123//33 67//33
f 69//33 74//33 70//33
f 65//33 124//33 71//33
f 67//33 77//33 73//33
f 74//33 79//33 75//33
f 71//33 81//33 76//33
f 77//33 125//33 78//33
f 79//33 83//33 80//33
f 81//33 85//33 82//33
f 83//33 126//33 84//33
f 85//33 89//33 86//33
f 84//33 126//33 87//33
f 89//33 93//33 90//33
f 88//33 87//33 91//33
f 93//33 96//33 94//33
f 91//33 98//33 95//33
f 96//33 127//33 97//33
f 98//33 128//33 99//33
f 97//33 127//33 100//33
f 99//33 128//33 102//33
f 101//33 100//33 104//33
f 103//33 102//33 106//33
f 105//33 104//33 108//33
f 107//33 106//33 110//33
f 109//33 108//33 112//33
f 78//33 125//33 114//33
f 110//33 58//33 60//33
f 112//33 61//33 63//33
f 115//33 114//33 64//33
f 118//34 18//34 135//34 156//34
f 48//35 45//35 147//35 148//35
f 122//36 48//36 148//36 160//36
f 10//37 2//37 129//37 132//37
f 39//38 32//38 141//38 144//38
f 116//39 56//39 152//39 154//39
f 41//40 37//40 143//40 145//40
f 34//41 30//41 140//41 142//41
f 18//42 8//42 131//42 135//42
f 12//43 4//43 130//43 133//43
f 32//44 120//44 158//44 141//44
f 2//45 116//45 154//45 129//45
f 57//46 54//46 151//46 153//46
f 120//47 26//47 139//47 158//47
f 16//48 12//48 133//48 134//48
f 54//49 119//49 157//49 151//49
f 121//50 39//50 144//50 159//50
f 117//51 16//51 134//51 155//51
f 22//52 117//52 155//52 137//52
f 20//53 10//53 132//53 136//53
f 50//54 43//54 146//54 149//54
f 26//55 22//55 137//55 139//55
f 43//56 121//56 159//56 146//56
f 8//57 57//57 153//57 131//57
f 24//58 118//58 156//58 138//58
f 4//59 52//59 150//59 130//59
f 37//60 34//60 142//60 143//60
f 45//61 41//61 145//61 147//61
f 30//62 24//62 138//62 140//62
f 119//63 20//63 136//63 157//63
f 56//64 50//64 149//64 152//64
f 52//65 122//65 160//65 150//65
